<svg width="21" height="20" viewBox="0 0 21 20" fill="none" xmlns="http://www.w3.org/2000/svg">
<path d="M10.6667 15.475C11.7667 15.475 12.7792 15.1792 13.7042 14.5875C14.6292 13.9958 15.3001 13.1917 15.7167 12.175H5.61675C6.05008 13.1917 6.72508 13.9958 7.64175 14.5875C8.55841 15.1792 9.56675 15.475 10.6667 15.475ZM6.21675 8.675L7.34175 7.55L8.46675 8.675L9.36675 7.775L7.34175 5.75L5.31675 7.775L6.21675 8.675ZM12.8917 8.675L14.0167 7.55L15.1417 8.675L16.0417 7.775L14.0167 5.75L11.9917 7.775L12.8917 8.675ZM10.6667 20C9.28341 20 7.98342 19.7375 6.76675 19.2125C5.55008 18.6875 4.49175 17.975 3.59175 17.075C2.69175 16.175 1.97925 15.1167 1.45425 13.9C0.929248 12.6833 0.666748 11.3833 0.666748 10C0.666748 8.61667 0.929248 7.31667 1.45425 6.1C1.97925 4.88333 2.69175 3.825 3.59175 2.925C4.49175 2.025 5.55008 1.3125 6.76675 0.7875C7.98342 0.2625 9.28341 0 10.6667 0C12.0501 0 13.3501 0.2625 14.5667 0.7875C15.7834 1.3125 16.8417 2.025 17.7417 2.925C18.6417 3.825 19.3542 4.88333 19.8792 6.1C20.4042 7.31667 20.6667 8.61667 20.6667 10C20.6667 11.3833 20.4042 12.6833 19.8792 13.9C19.3542 15.1167 18.6417 16.175 17.7417 17.075C16.8417 17.975 15.7834 18.6875 14.5667 19.2125C13.3501 19.7375 12.0501 20 10.6667 20ZM10.6667 18.5C13.0334 18.5 15.0417 17.675 16.6917 16.025C18.3417 14.375 19.1667 12.3667 19.1667 10C19.1667 7.63333 18.3417 5.625 16.6917 3.975C15.0417 2.325 13.0334 1.5 10.6667 1.5C8.30008 1.5 6.29175 2.325 4.64175 3.975C2.99175 5.625 2.16675 7.63333 2.16675 10C2.16675 12.3667 2.99175 14.375 4.64175 16.025C6.29175 17.675 8.30008 18.5 10.6667 18.5Z" fill="#294C89"/>
</svg>
