<svg width="171" height="21" viewBox="0 0 171 21" fill="none" xmlns="http://www.w3.org/2000/svg">
<path d="M13.4 2.34V2.74C12.9467 2.75333 12.6 2.82 12.36 2.94C12.1333 3.06 11.98 3.25333 11.9 3.52C11.82 3.78667 11.78 4.16667 11.78 4.66V16.6C11.7 16.6 11.62 16.6 11.54 16.6C11.4733 16.6 11.4 16.6 11.32 16.6L2.92 3.62V14.18C2.92 14.66 2.96 15.04 3.04 15.32C3.13333 15.5867 3.30667 15.78 3.56 15.9C3.82667 16.0067 4.22 16.0733 4.74 16.1V16.5C4.5 16.4733 4.18667 16.46 3.8 16.46C3.41333 16.4467 3.04667 16.44 2.7 16.44C2.36667 16.44 2.02667 16.4467 1.68 16.46C1.34667 16.46 1.06667 16.4733 0.84 16.5V16.1C1.29333 16.0733 1.63333 16.0067 1.86 15.9C2.1 15.78 2.26 15.5867 2.34 15.32C2.42 15.04 2.46 14.66 2.46 14.18V4.46C2.46 3.96667 2.42 3.60667 2.34 3.38C2.26 3.14 2.1 2.98 1.86 2.9C1.63333 2.80667 1.29333 2.75333 0.84 2.74V2.34C1.06667 2.35333 1.34667 2.36667 1.68 2.38C2.02667 2.39333 2.36667 2.4 2.7 2.4C2.99333 2.4 3.27333 2.39333 3.54 2.38C3.80667 2.36667 4.04667 2.35333 4.26 2.34L11.32 13.22V4.66C11.32 4.16667 11.2733 3.78667 11.18 3.52C11.1 3.25333 10.9267 3.06 10.66 2.94C10.4067 2.82 10.02 2.75333 9.5 2.74V2.34C9.74 2.35333 10.0533 2.36667 10.44 2.38C10.84 2.39333 11.2067 2.4 11.54 2.4C11.8867 2.4 12.2267 2.39333 12.56 2.38C12.9067 2.36667 13.1867 2.35333 13.4 2.34ZM19.3995 5.92C20.2529 5.92 21.0195 6.10667 21.6995 6.48C22.3795 6.85333 22.9195 7.44 23.3195 8.24C23.7329 9.04 23.9395 10.08 23.9395 11.36C23.9395 12.64 23.7329 13.68 23.3195 14.48C22.9195 15.2667 22.3795 15.8467 21.6995 16.22C21.0195 16.5933 20.2529 16.78 19.3995 16.78C18.5595 16.78 17.7929 16.5933 17.0995 16.22C16.4195 15.8467 15.8729 15.2667 15.4595 14.48C15.0595 13.68 14.8595 12.64 14.8595 11.36C14.8595 10.08 15.0595 9.04 15.4595 8.24C15.8729 7.44 16.4195 6.85333 17.0995 6.48C17.7929 6.10667 18.5595 5.92 19.3995 5.92ZM19.3995 6.32C18.6395 6.32 18.0129 6.71333 17.5195 7.5C17.0395 8.28667 16.7995 9.57333 16.7995 11.36C16.7995 13.1467 17.0395 14.4333 17.5195 15.22C18.0129 15.9933 18.6395 16.38 19.3995 16.38C20.1595 16.38 20.7795 15.9933 21.2595 15.22C21.7529 14.4333 21.9995 13.1467 21.9995 11.36C21.9995 9.57333 21.7529 8.28667 21.2595 7.5C20.7795 6.71333 20.1595 6.32 19.3995 6.32ZM31.8266 5.92C32.1866 5.92 32.4999 5.99333 32.7666 6.14C33.0466 6.28667 33.2599 6.48 33.4066 6.72C33.5666 6.94667 33.6466 7.20667 33.6466 7.5C33.6466 7.83333 33.5399 8.12667 33.3266 8.38C33.1266 8.63333 32.8532 8.76 32.5066 8.76C32.2266 8.76 31.9799 8.67333 31.7666 8.5C31.5532 8.31333 31.4466 8.05333 31.4466 7.72C31.4466 7.46667 31.5132 7.25333 31.6466 7.08C31.7932 6.89333 31.9532 6.74667 32.1266 6.64C32.0332 6.50667 31.8932 6.44 31.7066 6.44C31.2932 6.44 30.9132 6.56667 30.5666 6.82C30.2199 7.06 29.9266 7.37333 29.6866 7.76C29.4466 8.14667 29.2599 8.56 29.1266 9C28.9932 9.42667 28.9266 9.82667 28.9266 10.2V14.44C28.9266 15.0933 29.1132 15.5333 29.4866 15.76C29.8732 15.9733 30.3932 16.08 31.0466 16.08V16.5C30.7399 16.4867 30.3066 16.4733 29.7466 16.46C29.1866 16.4333 28.5932 16.42 27.9666 16.42C27.5132 16.42 27.0599 16.4333 26.6066 16.46C26.1666 16.4733 25.8332 16.4867 25.6066 16.5V16.08C26.1532 16.08 26.5399 15.98 26.7666 15.78C27.0066 15.58 27.1266 15.2 27.1266 14.64V8.38C27.1266 7.78 27.0199 7.34 26.8066 7.06C26.5932 6.76667 26.1932 6.62 25.6066 6.62V6.2C26.0332 6.24 26.4466 6.26 26.8466 6.26C27.2332 6.26 27.5999 6.24 27.9466 6.2C28.3066 6.14667 28.6332 6.07333 28.9266 5.98V8.48C29.0732 8.09333 29.2799 7.70667 29.5466 7.32C29.8266 6.92 30.1599 6.58667 30.5466 6.32C30.9332 6.05333 31.3599 5.92 31.8266 5.92ZM37.8828 2.88V6.22H40.8428V6.62H37.8828V14.36C37.8828 14.9867 37.9961 15.4267 38.2228 15.68C38.4495 15.9333 38.7628 16.06 39.1628 16.06C39.5628 16.06 39.9095 15.9 40.2028 15.58C40.4961 15.2467 40.7495 14.6933 40.9628 13.92L41.3628 14.02C41.2295 14.7933 40.9628 15.4467 40.5628 15.98C40.1761 16.5133 39.5761 16.78 38.7628 16.78C38.3095 16.78 37.9361 16.72 37.6428 16.6C37.3495 16.4933 37.0895 16.3333 36.8628 16.12C36.5695 15.8133 36.3628 15.4467 36.2428 15.02C36.1361 14.5933 36.0828 14.0267 36.0828 13.32V6.62H34.1628V6.22H36.0828V3.16C36.4161 3.14667 36.7361 3.12 37.0428 3.08C37.3495 3.04 37.6295 2.97333 37.8828 2.88ZM45.0231 0.839999V8.32C45.3698 7.41333 45.8498 6.78667 46.4631 6.44C47.0898 6.09333 47.7431 5.92 48.4231 5.92C48.9298 5.92 49.3498 5.98667 49.6831 6.12C50.0298 6.25333 50.3165 6.44 50.5431 6.68C50.7965 6.94667 50.9765 7.28 51.0831 7.68C51.1898 8.08 51.2431 8.62 51.2431 9.3V14.64C51.2431 15.2 51.3565 15.58 51.5831 15.78C51.8231 15.98 52.2165 16.08 52.7631 16.08V16.5C52.5365 16.4867 52.1898 16.4733 51.7231 16.46C51.2565 16.4333 50.8031 16.42 50.3631 16.42C49.9231 16.42 49.4898 16.4333 49.0631 16.46C48.6498 16.4733 48.3365 16.4867 48.1231 16.5V16.08C48.6031 16.08 48.9431 15.98 49.1431 15.78C49.3431 15.58 49.4431 15.2 49.4431 14.64V8.86C49.4431 8.44667 49.4098 8.06667 49.3431 7.72C49.2765 7.37333 49.1231 7.09333 48.8831 6.88C48.6565 6.66667 48.3031 6.56 47.8231 6.56C47.2765 6.56 46.7898 6.71333 46.3631 7.02C45.9498 7.32667 45.6231 7.75333 45.3831 8.3C45.1431 8.84667 45.0231 9.47333 45.0231 10.18V14.64C45.0231 15.2 45.1231 15.58 45.3231 15.78C45.5231 15.98 45.8631 16.08 46.3431 16.08V16.5C46.1298 16.4867 45.8098 16.4733 45.3831 16.46C44.9698 16.4333 44.5431 16.42 44.1031 16.42C43.6631 16.42 43.2098 16.4333 42.7431 16.46C42.2765 16.4733 41.9298 16.4867 41.7031 16.5V16.08C42.2498 16.08 42.6365 15.98 42.8631 15.78C43.1031 15.58 43.2231 15.2 43.2231 14.64V3.24C43.2231 2.64 43.1165 2.2 42.9031 1.92C42.6898 1.62667 42.2898 1.48 41.7031 1.48V1.06C42.1298 1.1 42.5431 1.12 42.9431 1.12C43.3298 1.12 43.6965 1.1 44.0431 1.06C44.4031 1.00667 44.7298 0.933333 45.0231 0.839999ZM59.1814 2.34C59.4614 2.35333 59.8281 2.36667 60.2814 2.38C60.7347 2.39333 61.1814 2.4 61.6214 2.4C62.2481 2.4 62.8481 2.39333 63.4214 2.38C63.9947 2.36667 64.4014 2.36 64.6414 2.36C66.2547 2.36 67.4614 2.72667 68.2614 3.46C69.0614 4.19333 69.4614 5.14 69.4614 6.3C69.4614 6.78 69.3814 7.28667 69.2214 7.82C69.0614 8.34 68.7814 8.82667 68.3814 9.28C67.9947 9.72 67.4614 10.08 66.7814 10.36C66.1014 10.64 65.2414 10.78 64.2014 10.78H62.2814V10.38H64.0014C64.9481 10.38 65.6681 10.2 66.1614 9.84C66.6681 9.48 67.0081 9.00667 67.1814 8.42C67.3681 7.83333 67.4614 7.2 67.4614 6.52C67.4614 5.25333 67.2081 4.30667 66.7014 3.68C66.2081 3.05333 65.3547 2.74 64.1414 2.74C63.5281 2.74 63.1281 2.85333 62.9414 3.08C62.7547 3.30667 62.6614 3.76667 62.6614 4.46V14.38C62.6614 14.86 62.7081 15.22 62.8014 15.46C62.9081 15.7 63.1081 15.86 63.4014 15.94C63.6947 16.02 64.1214 16.0733 64.6814 16.1V16.5C64.3347 16.4733 63.8947 16.46 63.3614 16.46C62.8281 16.4467 62.2881 16.44 61.7414 16.44C61.2214 16.44 60.7347 16.4467 60.2814 16.46C59.8281 16.46 59.4614 16.4733 59.1814 16.5V16.1C59.6347 16.0733 59.9747 16.02 60.2014 15.94C60.4414 15.86 60.6014 15.7 60.6814 15.46C60.7614 15.22 60.8014 14.86 60.8014 14.38V4.46C60.8014 3.96667 60.7614 3.60667 60.6814 3.38C60.6014 3.14 60.4414 2.98 60.2014 2.9C59.9747 2.80667 59.6347 2.75333 59.1814 2.74V2.34ZM75.4558 5.92C76.3091 5.92 77.0758 6.10667 77.7558 6.48C78.4358 6.85333 78.9758 7.44 79.3758 8.24C79.7891 9.04 79.9958 10.08 79.9958 11.36C79.9958 12.64 79.7891 13.68 79.3758 14.48C78.9758 15.2667 78.4358 15.8467 77.7558 16.22C77.0758 16.5933 76.3091 16.78 75.4558 16.78C74.6158 16.78 73.8491 16.5933 73.1558 16.22C72.4758 15.8467 71.9291 15.2667 71.5158 14.48C71.1158 13.68 70.9158 12.64 70.9158 11.36C70.9158 10.08 71.1158 9.04 71.5158 8.24C71.9291 7.44 72.4758 6.85333 73.1558 6.48C73.8491 6.10667 74.6158 5.92 75.4558 5.92ZM75.4558 6.32C74.6958 6.32 74.0691 6.71333 73.5758 7.5C73.0958 8.28667 72.8558 9.57333 72.8558 11.36C72.8558 13.1467 73.0958 14.4333 73.5758 15.22C74.0691 15.9933 74.6958 16.38 75.4558 16.38C76.2158 16.38 76.8358 15.9933 77.3158 15.22C77.8091 14.4333 78.0558 13.1467 78.0558 11.36C78.0558 9.57333 77.8091 8.28667 77.3158 7.5C76.8358 6.71333 76.2158 6.32 75.4558 6.32ZM84.6475 0.819999V14.64C84.6475 15.2 84.7608 15.58 84.9875 15.78C85.2275 15.98 85.6208 16.08 86.1675 16.08V16.5C85.9408 16.4867 85.5942 16.4733 85.1275 16.46C84.6742 16.4333 84.2142 16.42 83.7475 16.42C83.2942 16.42 82.8342 16.4333 82.3675 16.46C81.9008 16.4733 81.5542 16.4867 81.3275 16.5V16.08C81.8742 16.08 82.2608 15.98 82.4875 15.78C82.7275 15.58 82.8475 15.2 82.8475 14.64V3.22C82.8475 2.62 82.7408 2.18 82.5275 1.9C82.3142 1.60667 81.9142 1.46 81.3275 1.46V1.04C81.7542 1.08 82.1675 1.1 82.5675 1.1C82.9542 1.1 83.3208 1.08 83.6675 1.04C84.0275 0.986666 84.3542 0.913333 84.6475 0.819999ZM92.0048 5.92C93.1782 5.92 94.0915 6.28 94.7448 7C95.4115 7.70667 95.7448 8.81333 95.7448 10.32H88.6848L88.6648 9.94H93.8248C93.8515 9.28667 93.7982 8.68667 93.6648 8.14C93.5315 7.58 93.3182 7.13333 93.0248 6.8C92.7448 6.46667 92.3782 6.3 91.9248 6.3C91.3115 6.3 90.7648 6.60667 90.2848 7.22C89.8182 7.83333 89.5382 8.80667 89.4448 10.14L89.5048 10.22C89.4782 10.42 89.4582 10.64 89.4448 10.88C89.4315 11.12 89.4248 11.36 89.4248 11.6C89.4248 12.5067 89.5715 13.2867 89.8648 13.94C90.1582 14.5933 90.5382 15.0933 91.0048 15.44C91.4848 15.7733 91.9782 15.94 92.4848 15.94C92.8848 15.94 93.2648 15.88 93.6248 15.76C93.9848 15.6267 94.3182 15.4133 94.6248 15.12C94.9315 14.8267 95.1982 14.4333 95.4248 13.94L95.8248 14.1C95.6782 14.54 95.4382 14.9667 95.1048 15.38C94.7715 15.7933 94.3515 16.1333 93.8448 16.4C93.3382 16.6533 92.7515 16.78 92.0848 16.78C91.1248 16.78 90.2982 16.56 89.6048 16.12C88.9248 15.68 88.3982 15.0733 88.0248 14.3C87.6648 13.5133 87.4848 12.6133 87.4848 11.6C87.4848 10.4267 87.6715 9.42 88.0448 8.58C88.4182 7.72667 88.9448 7.07333 89.6248 6.62C90.3048 6.15333 91.0982 5.92 92.0048 5.92ZM112.783 2.34C112.729 2.84667 112.689 3.34 112.663 3.82C112.649 4.28667 112.643 4.64667 112.643 4.9C112.643 5.22 112.649 5.52 112.663 5.8C112.676 6.08 112.689 6.32667 112.703 6.54H112.243C112.149 5.60667 112.023 4.87333 111.863 4.34C111.703 3.79333 111.423 3.4 111.023 3.16C110.623 2.92 110.003 2.8 109.163 2.8H107.903C107.449 2.8 107.103 2.84 106.863 2.92C106.636 2.98667 106.483 3.14 106.403 3.38C106.323 3.60667 106.283 3.96667 106.283 4.46V14.38C106.283 14.86 106.329 15.22 106.423 15.46C106.529 15.7 106.729 15.86 107.023 15.94C107.316 16.02 107.743 16.0733 108.303 16.1V16.5C107.956 16.4733 107.516 16.46 106.983 16.46C106.449 16.4467 105.909 16.44 105.363 16.44C104.843 16.44 104.356 16.4467 103.903 16.46C103.449 16.46 103.083 16.4733 102.803 16.5V16.1C103.256 16.0733 103.596 16.02 103.823 15.94C104.063 15.86 104.223 15.7 104.303 15.46C104.383 15.22 104.423 14.86 104.423 14.38V4.46C104.423 3.96667 104.383 3.60667 104.303 3.38C104.223 3.14 104.063 2.98 103.823 2.9C103.596 2.80667 103.256 2.75333 102.803 2.74V2.34C103.296 2.35333 103.816 2.36667 104.363 2.38C104.909 2.38 105.449 2.38667 105.983 2.4C106.516 2.4 107.009 2.4 107.463 2.4C107.929 2.4 108.309 2.4 108.603 2.4C109.216 2.4 109.909 2.4 110.683 2.4C111.469 2.38667 112.169 2.36667 112.783 2.34ZM109.683 9.38C109.683 9.38 109.683 9.44667 109.683 9.58C109.683 9.71333 109.683 9.78 109.683 9.78H105.683C105.683 9.78 105.683 9.71333 105.683 9.58C105.683 9.44667 105.683 9.38 105.683 9.38H109.683ZM110.063 6.74C110.009 7.5 109.983 8.08 109.983 8.48C109.996 8.88 110.003 9.24667 110.003 9.58C110.003 9.91333 110.009 10.28 110.023 10.68C110.036 11.08 110.069 11.66 110.123 12.42H109.663C109.609 11.9933 109.543 11.58 109.463 11.18C109.396 10.7667 109.236 10.4333 108.983 10.18C108.743 9.91333 108.329 9.78 107.743 9.78V9.38C108.183 9.38 108.516 9.29333 108.743 9.12C108.983 8.93333 109.156 8.7 109.263 8.42C109.369 8.14 109.443 7.85333 109.483 7.56C109.523 7.25333 109.563 6.98 109.603 6.74H110.063ZM116.646 16.64C116.099 16.64 115.626 16.54 115.226 16.34C114.826 16.1267 114.519 15.8333 114.306 15.46C114.106 15.0867 114.006 14.6533 114.006 14.16C114.006 13.5733 114.139 13.0933 114.406 12.72C114.686 12.3467 115.039 12.0467 115.466 11.82C115.892 11.5933 116.339 11.4067 116.806 11.26C117.286 11.1 117.739 10.9533 118.166 10.82C118.592 10.6733 118.939 10.5067 119.206 10.32C119.486 10.1333 119.626 9.88667 119.626 9.58V8.34C119.626 7.78 119.539 7.35333 119.366 7.06C119.206 6.76667 118.986 6.57333 118.706 6.48C118.426 6.37333 118.112 6.32 117.766 6.32C117.432 6.32 117.072 6.36667 116.686 6.46C116.312 6.55333 116.012 6.74667 115.786 7.04C116.039 7.09333 116.259 7.22667 116.446 7.44C116.632 7.65333 116.726 7.92667 116.726 8.26C116.726 8.59333 116.619 8.86 116.406 9.06C116.192 9.24667 115.919 9.34 115.586 9.34C115.199 9.34 114.912 9.22 114.726 8.98C114.552 8.72667 114.466 8.44667 114.466 8.14C114.466 7.79333 114.552 7.51333 114.726 7.3C114.899 7.08667 115.119 6.88667 115.386 6.7C115.692 6.48667 116.086 6.30667 116.566 6.16C117.059 6 117.612 5.92 118.226 5.92C118.772 5.92 119.239 5.98667 119.626 6.12C120.012 6.24 120.332 6.42 120.586 6.66C120.932 6.98 121.159 7.37333 121.266 7.84C121.372 8.29333 121.426 8.84 121.426 9.48V15.04C121.426 15.3733 121.472 15.6133 121.566 15.76C121.672 15.9067 121.832 15.98 122.046 15.98C122.192 15.98 122.332 15.9467 122.466 15.88C122.599 15.8133 122.759 15.7067 122.946 15.56L123.166 15.9C122.886 16.1133 122.619 16.2933 122.366 16.44C122.112 16.5733 121.772 16.64 121.346 16.64C120.959 16.64 120.639 16.5733 120.386 16.44C120.132 16.3067 119.939 16.1133 119.806 15.86C119.686 15.5933 119.626 15.26 119.626 14.86C119.266 15.46 118.832 15.9067 118.326 16.2C117.832 16.4933 117.272 16.64 116.646 16.64ZM117.366 15.84C117.806 15.84 118.212 15.7133 118.586 15.46C118.972 15.2067 119.319 14.8267 119.626 14.32V10.4C119.466 10.6267 119.232 10.82 118.926 10.98C118.619 11.1267 118.286 11.28 117.926 11.44C117.566 11.5867 117.219 11.7667 116.886 11.98C116.566 12.18 116.299 12.4467 116.086 12.78C115.872 13.1133 115.766 13.5467 115.766 14.08C115.766 14.6133 115.906 15.04 116.186 15.36C116.479 15.68 116.872 15.84 117.366 15.84ZM128.917 5.92C129.343 5.92 129.757 5.97333 130.157 6.08C130.557 6.18667 130.917 6.34667 131.237 6.56C131.543 6.76 131.777 6.99333 131.937 7.26C132.097 7.51333 132.177 7.79333 132.177 8.1C132.177 8.46 132.077 8.74 131.877 8.94C131.677 9.12667 131.423 9.22 131.117 9.22C130.823 9.22 130.563 9.13333 130.337 8.96C130.123 8.78667 130.017 8.54 130.017 8.22C130.017 7.91333 130.097 7.66667 130.257 7.48C130.43 7.29333 130.63 7.17333 130.857 7.12C130.723 6.88 130.483 6.68 130.137 6.52C129.803 6.36 129.443 6.28 129.057 6.28C128.723 6.28 128.39 6.36 128.057 6.52C127.723 6.68 127.417 6.94667 127.137 7.32C126.857 7.68 126.63 8.18 126.457 8.82C126.283 9.44667 126.197 10.2333 126.197 11.18C126.197 12.3533 126.33 13.2867 126.597 13.98C126.863 14.6733 127.21 15.1733 127.637 15.48C128.077 15.7733 128.557 15.92 129.077 15.92C129.423 15.92 129.777 15.8533 130.137 15.72C130.497 15.5867 130.837 15.3733 131.157 15.08C131.477 14.7733 131.75 14.3667 131.977 13.86L132.357 14C132.223 14.4267 132.003 14.86 131.697 15.3C131.39 15.7267 130.99 16.08 130.497 16.36C130.003 16.64 129.397 16.78 128.677 16.78C127.85 16.78 127.103 16.5667 126.437 16.14C125.77 15.7133 125.237 15.1067 124.837 14.32C124.45 13.52 124.257 12.5733 124.257 11.48C124.257 10.3867 124.45 9.42667 124.837 8.6C125.237 7.76 125.79 7.10667 126.497 6.64C127.203 6.16 128.01 5.92 128.917 5.92ZM137.013 2.88V6.22H139.973V6.62H137.013V14.36C137.013 14.9867 137.127 15.4267 137.353 15.68C137.58 15.9333 137.893 16.06 138.293 16.06C138.693 16.06 139.04 15.9 139.333 15.58C139.627 15.2467 139.88 14.6933 140.093 13.92L140.493 14.02C140.36 14.7933 140.093 15.4467 139.693 15.98C139.307 16.5133 138.707 16.78 137.893 16.78C137.44 16.78 137.067 16.72 136.773 16.6C136.48 16.4933 136.22 16.3333 135.993 16.12C135.7 15.8133 135.493 15.4467 135.373 15.02C135.267 14.5933 135.213 14.0267 135.213 13.32V6.62H133.293V6.22H135.213V3.16C135.547 3.14667 135.867 3.12 136.173 3.08C136.48 3.04 136.76 2.97333 137.013 2.88ZM145.914 5.92C146.767 5.92 147.534 6.10667 148.214 6.48C148.894 6.85333 149.434 7.44 149.834 8.24C150.247 9.04 150.454 10.08 150.454 11.36C150.454 12.64 150.247 13.68 149.834 14.48C149.434 15.2667 148.894 15.8467 148.214 16.22C147.534 16.5933 146.767 16.78 145.914 16.78C145.074 16.78 144.307 16.5933 143.614 16.22C142.934 15.8467 142.387 15.2667 141.974 14.48C141.574 13.68 141.374 12.64 141.374 11.36C141.374 10.08 141.574 9.04 141.974 8.24C142.387 7.44 142.934 6.85333 143.614 6.48C144.307 6.10667 145.074 5.92 145.914 5.92ZM145.914 6.32C145.154 6.32 144.527 6.71333 144.034 7.5C143.554 8.28667 143.314 9.57333 143.314 11.36C143.314 13.1467 143.554 14.4333 144.034 15.22C144.527 15.9933 145.154 16.38 145.914 16.38C146.674 16.38 147.294 15.9933 147.774 15.22C148.267 14.4333 148.514 13.1467 148.514 11.36C148.514 9.57333 148.267 8.28667 147.774 7.5C147.294 6.71333 146.674 6.32 145.914 6.32ZM158.341 5.92C158.701 5.92 159.014 5.99333 159.281 6.14C159.561 6.28667 159.774 6.48 159.921 6.72C160.081 6.94667 160.161 7.20667 160.161 7.5C160.161 7.83333 160.054 8.12667 159.841 8.38C159.641 8.63333 159.367 8.76 159.021 8.76C158.741 8.76 158.494 8.67333 158.281 8.5C158.067 8.31333 157.961 8.05333 157.961 7.72C157.961 7.46667 158.027 7.25333 158.161 7.08C158.307 6.89333 158.467 6.74667 158.641 6.64C158.547 6.50667 158.407 6.44 158.221 6.44C157.807 6.44 157.427 6.56667 157.081 6.82C156.734 7.06 156.441 7.37333 156.201 7.76C155.961 8.14667 155.774 8.56 155.641 9C155.507 9.42667 155.441 9.82667 155.441 10.2V14.44C155.441 15.0933 155.627 15.5333 156.001 15.76C156.387 15.9733 156.907 16.08 157.561 16.08V16.5C157.254 16.4867 156.821 16.4733 156.261 16.46C155.701 16.4333 155.107 16.42 154.481 16.42C154.027 16.42 153.574 16.4333 153.121 16.46C152.681 16.4733 152.347 16.4867 152.121 16.5V16.08C152.667 16.08 153.054 15.98 153.281 15.78C153.521 15.58 153.641 15.2 153.641 14.64V8.38C153.641 7.78 153.534 7.34 153.321 7.06C153.107 6.76667 152.707 6.62 152.121 6.62V6.2C152.547 6.24 152.961 6.26 153.361 6.26C153.747 6.26 154.114 6.24 154.461 6.2C154.821 6.14667 155.147 6.07333 155.441 5.98V8.48C155.587 8.09333 155.794 7.70667 156.061 7.32C156.341 6.92 156.674 6.58667 157.061 6.32C157.447 6.05333 157.874 5.92 158.341 5.92ZM170.477 6.2V6.6C170.224 6.62667 169.99 6.74 169.777 6.94C169.564 7.14 169.364 7.49333 169.177 8L165.897 16.6H165.557L161.877 7.74C161.624 7.22 161.37 6.90667 161.117 6.8C160.877 6.68 160.677 6.62 160.517 6.62V6.2C160.81 6.24 161.117 6.27333 161.437 6.3C161.757 6.31333 162.104 6.32 162.477 6.32C162.89 6.32 163.324 6.30667 163.777 6.28C164.244 6.25333 164.677 6.22667 165.077 6.2V6.62C164.744 6.62 164.444 6.64667 164.177 6.7C163.924 6.74 163.764 6.88 163.697 7.12C163.63 7.34667 163.71 7.74 163.937 8.3L166.397 14.4L166.277 14.44L168.557 8.48C168.73 8.04 168.797 7.69333 168.757 7.44C168.73 7.17333 168.597 6.97333 168.357 6.84C168.117 6.70667 167.757 6.62667 167.277 6.6V6.2C167.517 6.21333 167.724 6.22667 167.897 6.24C168.07 6.24 168.237 6.24667 168.397 6.26C168.57 6.26 168.757 6.26 168.957 6.26C169.264 6.26 169.537 6.25333 169.777 6.24C170.03 6.22667 170.264 6.21333 170.477 6.2ZM165.897 16.6L165.217 18.34C165.084 18.6733 164.944 18.9533 164.797 19.18C164.664 19.4067 164.517 19.5933 164.357 19.74C164.144 19.94 163.89 20.0733 163.597 20.14C163.304 20.22 163.037 20.26 162.797 20.26C162.544 20.26 162.31 20.2133 162.097 20.12C161.897 20.0267 161.737 19.8867 161.617 19.7C161.497 19.5267 161.437 19.3133 161.437 19.06C161.437 18.74 161.53 18.48 161.717 18.28C161.904 18.0933 162.164 18 162.497 18C162.777 18 163.017 18.08 163.217 18.24C163.417 18.4 163.517 18.6333 163.517 18.94C163.517 19.1667 163.464 19.3533 163.357 19.5C163.25 19.6467 163.124 19.76 162.977 19.84C163.004 19.8533 163.024 19.86 163.037 19.86C163.064 19.86 163.084 19.86 163.097 19.86C163.457 19.86 163.777 19.7333 164.057 19.48C164.337 19.24 164.584 18.8467 164.797 18.3L165.517 16.44L165.897 16.6Z" fill="black"/>
</svg>
