<svg width="24" height="24" viewBox="0 0 24 24" fill="none" xmlns="http://www.w3.org/2000/svg">
<path d="M15.291 14.016C16.9625 12.8673 19.6071 12.4554 24 12.0069C19.548 11.5524 16.8914 11.1355 15.2238 9.95124C15.6868 8.97946 16.4659 7.8761 17.5618 6.46797C17.6442 6.3621 17.5054 6.22659 17.4014 6.31157C16.037 7.42832 14.9621 8.22907 14.0101 8.71772C12.861 7.04733 12.4487 4.40426 12.0001 0.0136615C11.5453 4.46335 11.128 7.11821 9.94324 8.78485C8.9709 8.32208 7.86691 7.54366 6.45781 6.44815C6.35188 6.36567 6.21647 6.50475 6.30132 6.60848C7.41871 7.97215 8.22008 9.04659 8.70902 9.99784C7.03749 11.1464 4.3931 11.5584 0 12.0069C4.45205 12.4613 7.10859 12.8784 8.77619 14.0626C8.31316 15.0344 7.53429 16.1377 6.43798 17.5459C6.35563 17.6517 6.49461 17.7873 6.5984 17.7021C7.96302 16.5857 9.03789 15.7846 9.98986 15.2961C11.1389 16.9665 11.5513 19.6096 12.0001 24C12.4547 19.5505 12.8718 16.8955 14.0568 15.2288C15.0291 15.6918 16.1331 16.4702 17.5422 17.5657C17.6481 17.648 17.7837 17.5091 17.6987 17.4054C16.5813 16.0417 15.7799 14.9672 15.291 14.016Z" fill="#294C89"/>
<path d="M19.7993 2.57808C19.7144 2.7568 19.5729 2.9589 19.3712 3.21796C19.3562 3.23724 19.3816 3.26224 19.4007 3.24653C19.6517 3.04139 19.8484 2.89606 20.0233 2.80643C20.2339 3.11316 20.3098 3.59753 20.3922 4.40256C20.4756 3.58664 20.5522 3.09977 20.7691 2.79376C20.9479 2.87874 21.1501 3.02014 21.4093 3.22153C21.4288 3.23653 21.4536 3.21118 21.4381 3.19207C21.2327 2.94123 21.0873 2.74466 20.9976 2.56969C21.3045 2.35937 21.7891 2.2835 22.5948 2.20137C21.7784 2.11799 21.2911 2.04122 20.9851 1.8243C21.0699 1.64576 21.2114 1.44365 21.4131 1.18442C21.4281 1.16514 21.4027 1.14014 21.3836 1.15585C21.1326 1.36135 20.9358 1.5065 20.7609 1.59613C20.5504 1.2894 20.4743 0.805026 20.3922 0C20.3087 0.815738 20.2321 1.30261 20.0151 1.60862C19.8364 1.52382 19.634 1.38259 19.375 1.18103C19.3555 1.16585 19.3305 1.1912 19.3462 1.21031C19.5517 1.46115 19.6969 1.6579 19.7866 1.83269C19.4797 2.04301 18.9952 2.11906 18.1895 2.20137C19.0059 2.28457 19.4933 2.36116 19.7993 2.57808Z" fill="#294C89"/>
<path d="M4.62522 20.5129C4.71025 20.3344 4.85173 20.1321 5.05324 19.873C5.06842 19.8537 5.04287 19.8289 5.02376 19.8445C4.77295 20.0498 4.57609 20.1949 4.4012 20.2847C4.19059 19.978 4.11466 19.4936 4.03231 18.6884C3.94907 19.5045 3.87225 19.9912 3.65538 20.2972C3.47657 20.2124 3.27435 20.071 3.01514 19.8695C2.99567 19.8545 2.97084 19.8798 2.98638 19.8989C3.19181 20.1498 3.33723 20.3463 3.4269 20.5213C3.12 20.7316 2.63535 20.8075 1.82987 20.8898C2.64607 20.9732 3.1334 21.0498 3.43959 21.2667C3.35455 21.4454 3.21307 21.6473 3.01157 21.9066C2.99638 21.9259 3.02193 21.9508 3.04086 21.9351C3.29185 21.7298 3.48871 21.5847 3.6636 21.495C3.87404 21.8018 3.95014 22.2861 4.03231 23.091C4.11574 22.2753 4.19237 21.7884 4.40942 21.4824C4.58806 21.5672 4.79046 21.7086 5.04966 21.9101C5.06913 21.9251 5.09397 21.8998 5.07842 21.8807C4.87299 21.6298 4.72758 21.4331 4.6379 21.2583C4.9448 21.048 5.42927 20.9719 6.23493 20.8898C5.41855 20.8066 4.9314 20.7298 4.62522 20.5129Z" fill="#294C89"/>
</svg>
