<?xml version="1.0" standalone="no"?>
<!DOCTYPE svg PUBLIC "-//W3C//DTD SVG 20010904//EN"
 "http://www.w3.org/TR/2001/REC-SVG-20010904/DTD/svg10.dtd">
<svg version="1.0" xmlns="http://www.w3.org/2000/svg"
 width="700.000000pt" height="700.000000pt" viewBox="0 0 700.000000 700.000000"
 preserveAspectRatio="xMidYMid meet">
<metadata>
Created by potrace 1.14, written by Peter Selinger 2001-2017
</metadata>
<g transform="translate(0.000000,700.000000) scale(0.100000,-0.100000)"
fill="#000000" stroke="none">
<path d="M5940 6949 c-1 -80 -34 -263 -61 -333 -36 -98 -32 -97 -142 -22 -53
36 -97 62 -97 57 0 -5 6 -14 14 -20 15 -12 116 -156 116 -164 0 -18 -156 -69
-250 -82 -25 -3 -52 -8 -60 -10 -8 -2 -34 -5 -58 -7 -46 -2 -70 -17 -30 -19
25 -1 35 -2 118 -14 136 -19 257 -56 275 -85 8 -13 -7 -40 -67 -123 -27 -38
-48 -71 -46 -73 2 -2 20 10 40 26 60 49 141 100 150 93 34 -20 95 -277 97
-407 1 -55 11 -20 26 93 23 176 68 321 100 321 6 0 51 -27 98 -61 83 -57 109
-66 68 -23 -27 30 -101 140 -101 151 0 33 269 101 403 103 10 0 15 4 12 10 -3
5 -16 9 -28 9 -23 -2 -105 8 -147 16 -14 3 -34 7 -45 9 -89 18 -160 43 -192
68 -13 10 26 80 89 161 32 40 22 51 -15 16 -28 -26 -137 -99 -148 -99 -17 0
-56 97 -74 185 -3 17 -13 79 -21 140 -16 115 -24 142 -24 84z"/>
<path d="M3489 6908 c-1 -24 -3 -52 -4 -63 -2 -11 -6 -49 -9 -85 -4 -36 -9
-76 -11 -90 -2 -14 -7 -54 -11 -90 -3 -36 -7 -76 -9 -90 -2 -14 -6 -50 -9 -80
-8 -64 -10 -84 -32 -245 -23 -181 -24 -186 -29 -214 -2 -14 -7 -44 -10 -66 -3
-22 -8 -51 -10 -65 -3 -14 -7 -41 -10 -60 -3 -19 -12 -71 -20 -115 -8 -44 -17
-93 -20 -110 -4 -27 -69 -310 -79 -345 -2 -8 -9 -33 -15 -55 -19 -73 -69 -219
-101 -300 -56 -143 -178 -370 -208 -389 -24 -15 -423 227 -642 389 -30 23 -91
68 -135 100 -44 33 -82 62 -85 65 -14 15 -173 130 -180 130 -4 0 -13 -7 -20
-15 -15 -18 -2 -49 35 -89 11 -12 48 -58 83 -101 35 -44 68 -87 75 -95 7 -8
28 -35 47 -60 19 -25 39 -49 43 -55 49 -59 264 -364 292 -413 5 -9 17 -29 26
-43 10 -14 36 -60 58 -102 l42 -76 -93 -54 c-160 -94 -326 -163 -538 -225
-117 -34 -341 -89 -435 -107 -110 -20 -256 -46 -290 -50 -22 -3 -65 -10 -95
-15 -30 -5 -75 -12 -100 -15 -25 -3 -56 -8 -70 -10 -27 -4 -237 -31 -310 -40
-25 -3 -61 -7 -80 -10 -19 -2 -64 -7 -100 -10 -36 -4 -94 -10 -130 -15 -36 -5
-99 -12 -140 -16 -41 -3 -91 -10 -110 -14 l-35 -8 45 -2 c25 -2 54 -4 65 -5
11 -1 56 -6 100 -10 44 -4 87 -9 95 -10 8 -2 44 -6 80 -9 59 -6 99 -11 170
-21 14 -2 52 -7 85 -10 33 -3 71 -8 85 -10 14 -2 46 -6 72 -9 51 -6 88 -11
188 -26 36 -5 83 -12 105 -15 38 -5 240 -39 295 -50 14 -2 79 -16 145 -30 66
-14 134 -28 150 -31 71 -13 347 -99 454 -140 124 -49 260 -117 354 -177 l58
-38 -55 -104 c-76 -142 -176 -299 -320 -500 -66 -93 -126 -177 -133 -185 -94
-117 -183 -238 -183 -251 0 -27 40 -38 62 -16 26 25 256 206 402 316 170 128
359 255 490 330 l89 50 45 -72 c41 -65 95 -172 150 -297 33 -77 120 -354 137
-440 2 -8 8 -33 14 -55 15 -57 77 -375 91 -470 7 -44 14 -87 15 -97 2 -9 6
-38 10 -65 4 -26 9 -59 11 -73 4 -26 51 -393 59 -470 3 -25 7 -61 10 -80 10
-86 16 -139 20 -185 3 -27 8 -75 11 -105 4 -30 7 -65 8 -77 0 -49 14 -4 20 67
4 41 8 89 10 105 2 17 7 62 10 100 4 39 9 84 11 100 7 58 15 120 20 170 7 64
16 132 20 153 1 10 6 44 9 77 4 33 9 71 11 85 2 14 7 45 10 70 3 25 15 97 25
160 10 63 21 131 24 151 37 253 152 696 229 884 64 156 189 375 214 375 8 0
49 -19 91 -42 209 -113 434 -264 734 -491 194 -146 220 -160 234 -123 4 10
-50 86 -148 209 -84 106 -163 207 -175 223 -93 124 -136 185 -208 294 -77 118
-154 245 -167 281 -13 33 273 179 496 254 192 63 495 138 696 170 19 3 71 12
115 20 44 8 103 17 130 20 28 3 57 8 65 10 19 5 135 21 290 40 19 2 89 11 155
19 66 9 152 18 190 22 39 3 81 8 95 9 14 2 54 6 90 10 36 3 74 8 85 10 11 2
32 4 48 4 48 2 29 21 -20 21 -27 0 -77 4 -113 9 -36 5 -90 12 -120 15 -30 3
-80 8 -110 12 -30 3 -66 7 -80 9 -61 7 -285 34 -330 41 -87 12 -168 24 -205
28 -68 9 -389 64 -415 71 -8 2 -28 7 -45 9 -32 6 -201 45 -300 70 -233 59
-492 164 -670 274 -79 49 -78 46 -43 116 18 33 36 63 40 64 4 2 8 9 8 14 0 32
244 398 424 637 186 246 190 252 179 270 -6 9 -17 16 -26 16 -11 0 -179 -125
-207 -155 -10 -10 -136 -108 -255 -197 -178 -133 -519 -353 -548 -353 -8 0
-100 160 -136 235 -94 197 -204 549 -245 785 -7 39 -11 62 -26 135 -17 87 -23
126 -49 295 -18 117 -22 145 -26 180 -3 19 -7 51 -10 70 -2 19 -7 58 -10 85
-3 28 -8 67 -11 87 -13 93 -23 183 -29 248 -3 30 -7 71 -10 90 -2 19 -7 62
-10 95 -3 33 -8 69 -10 80 -2 11 -4 39 -4 63 -1 23 -5 42 -11 42 -5 0 -11 -19
-11 -42z"/>
<path d="M1170 1504 c0 -26 -23 -187 -34 -239 -12 -61 -30 -114 -48 -147 l-21
-37 -36 19 c-20 10 -61 37 -91 59 -30 23 -58 41 -62 41 -5 0 16 -33 46 -72 83
-113 83 -112 33 -136 -68 -32 -149 -52 -262 -66 -22 -3 -62 -8 -90 -12 -60 -7
-71 -14 -24 -15 134 -3 348 -52 404 -93 18 -13 18 -15 -5 -52 -13 -21 -42 -63
-63 -92 -22 -29 -38 -55 -35 -57 2 -2 20 8 39 24 19 15 58 44 88 64 l53 37 18
-23 c28 -36 60 -149 75 -263 3 -27 8 -58 10 -69 2 -11 4 -35 4 -54 1 -50 11
-32 17 30 3 30 7 65 9 79 3 14 8 45 11 70 8 59 50 190 69 215 13 16 18 17 33
7 9 -7 24 -15 32 -19 8 -3 41 -26 73 -50 33 -25 61 -43 63 -41 1 2 -24 41 -56
87 -33 46 -60 89 -60 96 0 27 155 77 282 91 35 4 70 8 78 10 8 1 26 3 39 3 27
1 21 14 -7 16 -42 5 -148 17 -162 20 -109 22 -212 57 -239 81 -3 3 54 96 95
153 13 19 22 36 20 38 -2 3 -30 -16 -60 -41 -73 -60 -114 -80 -130 -67 -29 24
-75 209 -91 366 -7 64 -15 86 -15 39z"/>
</g>
</svg>
