<svg width="20" height="20" viewBox="0 0 20 20" fill="none" xmlns="http://www.w3.org/2000/svg">
<path d="M13.65 8.675C14.0333 8.675 14.3542 8.54167 14.6125 8.275C14.8708 8.00833 15 7.69167 15 7.325C15 6.94167 14.8708 6.62083 14.6125 6.3625C14.3542 6.10417 14.0333 5.975 13.65 5.975C13.2833 5.975 12.9667 6.10417 12.7 6.3625C12.4333 6.62083 12.3 6.94167 12.3 7.325C12.3 7.69167 12.4333 8.00833 12.7 8.275C12.9667 8.54167 13.2833 8.675 13.65 8.675ZM6.35 8.675C6.73333 8.675 7.05417 8.54167 7.3125 8.275C7.57083 8.00833 7.7 7.69167 7.7 7.325C7.7 6.94167 7.57083 6.62083 7.3125 6.3625C7.05417 6.10417 6.73333 5.975 6.35 5.975C5.98333 5.975 5.66667 6.10417 5.4 6.3625C5.13333 6.62083 5 6.94167 5 7.325C5 7.69167 5.13333 8.00833 5.4 8.275C5.66667 8.54167 5.98333 8.675 6.35 8.675ZM10 15.475C11.1 15.475 12.1125 15.1792 13.0375 14.5875C13.9625 13.9958 14.6333 13.1917 15.05 12.175H4.95C5.38333 13.1917 6.05833 13.9958 6.975 14.5875C7.89167 15.1792 8.9 15.475 10 15.475ZM10 20C8.61667 20 7.31667 19.7375 6.1 19.2125C4.88333 18.6875 3.825 17.975 2.925 17.075C2.025 16.175 1.3125 15.1167 0.7875 13.9C0.2625 12.6833 0 11.3833 0 10C0 8.61667 0.2625 7.31667 0.7875 6.1C1.3125 4.88333 2.025 3.825 2.925 2.925C3.825 2.025 4.88333 1.3125 6.1 0.7875C7.31667 0.2625 8.61667 0 10 0C11.3833 0 12.6833 0.2625 13.9 0.7875C15.1167 1.3125 16.175 2.025 17.075 2.925C17.975 3.825 18.6875 4.88333 19.2125 6.1C19.7375 7.31667 20 8.61667 20 10C20 11.3833 19.7375 12.6833 19.2125 13.9C18.6875 15.1167 17.975 16.175 17.075 17.075C16.175 17.975 15.1167 18.6875 13.9 19.2125C12.6833 19.7375 11.3833 20 10 20ZM10 18.5C12.3667 18.5 14.375 17.675 16.025 16.025C17.675 14.375 18.5 12.3667 18.5 10C18.5 7.63333 17.675 5.625 16.025 3.975C14.375 2.325 12.3667 1.5 10 1.5C7.63333 1.5 5.625 2.325 3.975 3.975C2.325 5.625 1.5 7.63333 1.5 10C1.5 12.3667 2.325 14.375 3.975 16.025C5.625 17.675 7.63333 18.5 10 18.5Z" fill="#294C89"/>
</svg>
